<?xml version="1.0" encoding="UTF-8"?>
<!-- Created with Inkscape (http://www.inkscape.org/) -->
<svg width="152.05" height="38.187" version="1.1" viewBox="0 0 40.232 10.104" xmlns="http://www.w3.org/2000/svg">
  <g transform="translate(-1.7828 -1.1202)">
    <g aria-label="NGRAMS">
      <g>
        <path d="m1.9521 11.111q-0.070557 0-0.127-0.04233-0.042335-0.05645-0.042335-0.127v-9.5394q0-0.070557 0.042335-0.11289 0.056446-0.056446 0.127-0.056446h1.7357q0.14112 0 0.18345 0.14112l1.8909 5.5176q0.014112 0.042334 0.042334 0.042334 0.042334-0.014111 0.042334-0.056446v-5.4753q0-0.070557 0.042334-0.11289 0.056446-0.056446 0.127-0.056446h1.651q0.070558 0 0.11289 0.056446 0.056446 0.042335 0.056446 0.11289v9.5394q0 0.07056-0.056446 0.127-0.042334 0.04233-0.11289 0.04233h-1.7498q-0.14112 0-0.18345-0.14112l-1.8768-5.4753q-0.014111-0.042334-0.056446-0.028223-0.028223 0-0.028223 0.042334v5.4329q0 0.07056-0.056446 0.127-0.042334 0.04233-0.11289 0.04233z" fill="#e2185c" />
        <g fill="#1a1a1a">
          <path d="m11.717 11.224q-1.27 0-2.0462-0.71969-0.76202-0.7338-0.76202-1.9474v-4.7697q0-1.2136 0.76202-1.9333 0.77613-0.7338 2.0462-0.7338t2.0462 0.7338q0.77613 0.7338 0.77613 1.9474v0.53624q0 0.070557-0.05645 0.127-0.04233 0.042334-0.11289 0.042334h-1.651q-0.07056 0-0.127-0.042334-0.04233-0.056446-0.04233-0.127v-0.56446q0-0.42334-0.22578-0.67735-0.22578-0.26812-0.6068-0.26812-0.3669 0-0.59268 0.26812-0.22578 0.25401-0.22578 0.67735v4.7979q0 0.42334 0.22578 0.69146 0.22578 0.25401 0.59268 0.25401 0.38101 0 0.6068-0.25401 0.22578-0.26812 0.22578-0.69146v-1.1289q0-0.070557-0.07056-0.070557h-0.62091q-0.07056 0-0.127-0.042334-0.04233-0.056446-0.04233-0.127v-1.2559q0-0.070557 0.04233-0.11289 0.05645-0.056446 0.127-0.056446h2.5118q0.07056 0 0.11289 0.056446 0.05645 0.042334 0.05645 0.11289v2.6106q0 1.2136-0.77613 1.9474-0.77613 0.71969-2.0462 0.71969z" />
          <path d="m15.753 11.111q-0.07056 0-0.127-0.04233-0.04234-0.05645-0.04234-0.127v-9.5394q0-0.070557 0.04234-0.11289 0.05645-0.056446 0.127-0.056446h2.8505q0.77613 0 1.3829 0.38101 0.6068 0.3669 0.93136 1.0443 0.33868 0.67735 0.33868 1.5523 0 0.83258-0.32456 1.4676-0.31045 0.63502-0.87491 0.9878-0.02822 0.014112-0.04233 0.042334-0.01411 0.014112 0 0.042334l1.2983 4.1629 0.01411 0.05645q0 0.14112-0.15523 0.14112h-1.6934q-0.15523 0-0.19756-0.14112l-1.0866-3.8948q-0.02822-0.056446-0.07056-0.056446h-0.47979q-0.07056 0-0.07056 0.070558v3.8524q0 0.07056-0.05645 0.127-0.04233 0.04233-0.11289 0.04233zm1.8204-5.6869q0 0.070557 0.07056 0.070557h0.62091q0.45157 0 0.71969-0.33868 0.28223-0.33868 0.28223-0.93136t-0.28223-0.93136q-0.26812-0.35279-0.71969-0.35279h-0.62091q-0.07056 0-0.07056 0.070558z" />
          <path d="m22.089 11.111q-0.18345 0-0.14112-0.18345l2.0603-9.5394q0.02822-0.15523 0.18345-0.15523h1.9051q0.15523 0 0.18345 0.15523l2.0744 9.5394 0.01411 0.05645q0 0.127-0.15523 0.127h-1.6934q-0.16934 0-0.18345-0.15523l-0.22578-1.3547q0-0.070557-0.08467-0.070557h-1.7922q-0.08467 0-0.08467 0.070557l-0.22578 1.3547q-0.01411 0.15523-0.18345 0.15523zm2.3425-3.1892q0 0.070557 0.05645 0.070557h1.27q0.07056 0 0.05645-0.070557l-0.66324-3.8948q-0.01411-0.042334-0.04233-0.042334t-0.04233 0.042334z" />
          <path d="m29.201 11.111q-0.07056 0-0.127-0.04233-0.04233-0.05645-0.04233-0.127v-9.5394q0-0.070557 0.04233-0.11289 0.05645-0.056446 0.127-0.056446h1.6369q0.15523 0 0.21167 0.127l1.2418 2.3143q0.04234 0.056446 0.08467 0l1.2277-2.3143q0.070557-0.127 0.21167-0.127h1.6369q0.07056 0 0.11289 0.056446 0.05645 0.042335 0.05645 0.11289v9.5394q0 0.07056-0.05645 0.127-0.04233 0.04233-0.11289 0.04233h-1.651q-0.07056 0-0.127-0.04233-0.04233-0.05645-0.04233-0.127v-6.3643q0-0.056446-0.02822-0.056446t-0.05645 0.042334l-1.1148 1.9756q-0.07056 0.11289-0.11289 0.11289-0.04233 0-0.11289-0.11289l-1.1007-1.9615q-0.02822-0.042334-0.05645-0.042334-0.02822 0-0.02822 0.056446v6.3502q0 0.07056-0.05645 0.127-0.04233 0.04233-0.11289 0.04233z" />
          <path d="m39.263 11.224q-1.2418 0-1.9897-0.70558-0.74791-0.70558-0.74791-1.8768v-0.40923q0-0.070557 0.04234-0.11289 0.05645-0.056446 0.127-0.056446h1.6228q0.07056 0 0.11289 0.056446 0.05645 0.042335 0.05645 0.11289v0.31045q0 0.45157 0.21167 0.71969 0.22578 0.25401 0.56446 0.25401 0.35279 0 0.56446-0.2399 0.22578-0.25401 0.22578-0.66324 0-0.45157-0.29634-0.77613-0.28223-0.32456-1.0725-0.90314-0.69146-0.4939-1.143-0.88902-0.43746-0.39512-0.74791-0.95958-0.31045-0.57857-0.31045-1.3265 0-1.1995 0.74791-1.9192 0.74791-0.71969 1.9615-0.71969 1.2418 0 2.0038 0.74791t0.76202 1.9615v0.29634q0 0.070558-0.05645 0.127-0.04234 0.042335-0.11289 0.042335h-1.6228q-0.07056 0-0.127-0.042335-0.04234-0.056446-0.04234-0.127v-0.33868q0-0.42334-0.22578-0.69146t-0.57857-0.26812q-0.33868 0-0.55035 0.25401-0.19756 0.2399-0.19756 0.66324 0 0.39512 0.26812 0.7338 0.28223 0.32456 1.0443 0.88902 0.88902 0.67735 1.3265 1.0725 0.43746 0.39512 0.67735 0.90314 0.25401 0.4939 0.25401 1.1854 0 1.2559-0.76202 1.9756-0.74791 0.71969-1.9897 0.71969z" />
        </g>
      </g>
    </g>
  </g>
</svg>
